<svg xmlns="http://www.w3.org/2000/svg" viewBox="0 0 301.814 181.928" height="687.602" width="1140.714">
	<path d="M-598.435 0c-17.897 0-28.908 14.733-32.305 32.305l-22.678 117.318c-3.397 17.572 14.408 32.305 32.305 32.305h893.34c17.898 0 32.49-14.733 29.093-32.305L278.64 32.305C275.244 14.733 264.234 0 246.337 0z" fill="#43464b"/>
	<path d="M230.259 23.691a16.027 16.027 0 00-16.063 16.063v58.333a16.027 16.027 0 0016.063 16.062h64.203l-15.82-81.844a56.086 56.086 0 00-2.38-8.614zM-103.919 23.691a169.333 169.333 0 00-14.01 67.273 169.333 169.333 0 001.785 23.185h290.842a16.027 16.027 0 0016.063-16.063V39.754a16.027 16.027 0 00-16.063-16.063H-103.919z" fill="#7da6ff"/>
	<path d="M-213.44 164.875a169.333 169.333 0 009.417 17.053h476.25c12.315 0 23.065-6.976 27.466-17.053H-213.44z" fill="#cccc1d"/>
</svg>
